<svg xmlns="http://www.w3.org/2000/svg" viewBox="0 0 24 24" fill="none" stroke="#b30000" stroke-width="2" stroke-linecap="round" stroke-linejoin="round">
  <circle cx="12" cy="12" r="10" fill="#0f0f0f"/>
  <circle cx="8" cy="8" r="1.5" fill="#b30000" stroke="none"/>
  <circle cx="16" cy="8" r="1.5" fill="#b30000" stroke="none"/>
  <path d="M8 14s1.5 2 4 2 4-2 4-2" stroke="#b30000"/>
  <line x1="9" y1="17" x2="15" y2="17" stroke="#b30000"/>
  <path d="M9 3.6V12a2 2 0 0 1-2 2H6a2 2 0 0 1-2-2v-1" stroke="#b30000"/>
  <path d="M19 6.6V12a2 2 0 0 1-2 2h-1a2 2 0 0 1-2-2V3" stroke="#b30000"/>
</svg>